<svg data-v-423bf9ae="" xmlns="http://www.w3.org/2000/svg" viewBox="0 0 329.9297017865038 163" class="iconAbove"><!----><!----><!----><g data-v-423bf9ae="" id="22062319-55bc-4ef1-812b-4414dcf15870" fill="#0D2633" transform="matrix(5.353160458607779,0,0,5.353160458607779,2.6642250711324778,76.42920886800036)"><path d="M5.31 9.51L5.31 9.51Q5.33 9.31 5.36 9.03Q5.38 8.75 5.38 8.45Q5.39 8.15 5.38 7.84Q5.38 7.53 5.35 7.29L5.35 7.29Q5.29 6.85 5.16 6.49Q5.03 6.13 4.75 5.84L4.75 5.84Q4.45 5.52 4.01 5.30Q3.57 5.08 3.15 5.01L3.15 5.01Q2.86 4.96 2.49 5.01Q2.13 5.07 1.83 5.36L1.83 5.36Q1.36 5.82 0.97 6.50Q0.57 7.17 0.28 7.96Q-0.01 8.75-0.20 9.60Q-0.39 10.46-0.46 11.30Q-0.53 12.14-0.47 12.90Q-0.41 13.66-0.20 14.27L-0.20 14.27Q-0.08 14.66 0.14 14.99Q0.36 15.32 0.60 15.51L0.60 15.51Q1.25 15.96 1.99 16.10L1.99 16.10Q2.81 16.30 3.49 15.72L3.49 15.72Q3.99 15.26 4.41 14.42Q4.83 13.58 5.12 12.39L5.12 12.39Q5.19 12.04 5.18 11.82Q5.17 11.59 5.01 11.30L5.01 11.30Q4.93 11.14 4.83 10.96Q4.73 10.78 4.62 10.63L4.62 10.63Q4.47 10.39 4.28 10.32Q4.09 10.25 3.79 10.30L3.79 10.30Q3.54 10.36 3.19 10.42Q2.84 10.49 2.52 10.58L2.52 10.58Q2.18 10.65 1.97 10.74Q1.76 10.82 1.83 11.14L1.83 11.14Q1.99 11.86 2.28 12.17Q2.58 12.49 3.11 12.45L3.11 12.45Q2.97 12.88 2.81 13.27Q2.65 13.65 2.47 13.92Q2.30 14.18 2.12 14.31Q1.95 14.43 1.78 14.35L1.78 14.35Q1.58 14.25 1.48 13.85Q1.39 13.45 1.37 12.89Q1.36 12.32 1.44 11.66Q1.51 11.00 1.67 10.40L1.67 10.40Q1.83 9.67 2.06 9.02Q2.30 8.36 2.53 7.88Q2.77 7.39 3.00 7.13Q3.23 6.86 3.40 6.93L3.40 6.93Q3.49 6.96 3.52 7.11Q3.56 7.27 3.58 7.48L3.58 7.48Q3.60 7.59 3.60 7.71Q3.61 7.83 3.61 7.95L3.61 7.95Q3.61 8.08 3.62 8.19Q3.63 8.30 3.64 8.41L3.64 8.41Q3.70 9.02 3.98 9.39Q4.27 9.77 4.87 9.88L4.87 9.88Q5.10 9.91 5.17 9.83Q5.25 9.74 5.31 9.51ZM8.43 5.88L8.43 5.88Q8.20 5.68 7.91 5.51Q7.62 5.33 7.36 5.25L7.36 5.25Q7.11 5.15 6.99 5.22Q6.86 5.29 6.79 5.60L6.79 5.60Q6.69 6.12 6.57 6.86Q6.45 7.60 6.33 8.44Q6.22 9.28 6.10 10.18Q5.99 11.07 5.89 11.90Q5.80 12.73 5.73 13.43Q5.66 14.14 5.63 14.62L5.63 14.62Q5.60 14.98 5.66 15.18Q5.73 15.39 5.94 15.54L5.94 15.54Q6.13 15.69 6.36 15.79Q6.58 15.89 6.82 15.99L6.82 15.99Q7.06 16.07 7.14 16.00Q7.22 15.93 7.27 15.69L7.27 15.69Q7.35 15.08 7.46 14.32Q7.56 13.55 7.69 12.73Q7.81 11.90 7.95 11.05Q8.08 10.19 8.21 9.40Q8.34 8.61 8.47 7.91Q8.60 7.21 8.71 6.69L8.71 6.69Q8.76 6.40 8.71 6.24Q8.67 6.08 8.43 5.88ZM12.18 11.69L12.18 11.69Q12.36 12.11 12.59 12.57Q12.81 13.03 13.02 13.46Q13.23 13.89 13.43 14.25Q13.62 14.62 13.78 14.87L13.78 14.87Q13.93 15.11 13.90 15.25Q13.87 15.40 13.68 15.54L13.68 15.54Q13.57 15.64 13.40 15.71Q13.23 15.78 13.08 15.81L13.08 15.81Q12.84 15.90 12.59 15.85Q12.33 15.79 12.08 15.39L12.08 15.39Q11.98 15.22 11.81 14.92Q11.63 14.63 11.42 14.27Q11.21 13.90 11.00 13.49Q10.78 13.08 10.60 12.67L10.60 12.67Q10.47 13.54 10.37 14.30Q10.26 15.06 10.16 15.69L10.16 15.69Q10.16 15.90 10.09 15.99Q10.02 16.07 9.90 16.06Q9.79 16.04 9.62 15.97Q9.45 15.89 9.24 15.81L9.24 15.81Q8.83 15.64 8.65 15.39Q8.47 15.13 8.51 14.62L8.51 14.62Q8.54 14.14 8.62 13.42Q8.69 12.70 8.80 11.85Q8.90 11.00 9.02 10.09Q9.14 9.18 9.26 8.32Q9.38 7.46 9.50 6.71Q9.62 5.96 9.72 5.45L9.72 5.45Q9.79 5.14 9.92 5.07Q10.05 5.00 10.29 5.10L10.29 5.10Q10.54 5.18 10.84 5.36Q11.13 5.53 11.35 5.73L11.35 5.73Q11.59 5.94 11.65 6.08Q11.70 6.23 11.63 6.52L11.63 6.52Q11.51 7.10 11.38 7.86Q11.24 8.62 11.09 9.55L11.09 9.55Q11.45 9.00 11.87 8.40Q12.28 7.80 12.66 7.21Q13.03 6.62 13.36 6.11Q13.69 5.60 13.89 5.25L13.89 5.25Q14.01 5.01 14.14 5.01L14.14 5.01Q14.29 5.01 14.46 5.21L14.46 5.21Q14.64 5.40 14.78 5.66Q14.91 5.91 15.02 6.20L15.02 6.20Q15.11 6.44 15.09 6.68Q15.08 6.92 14.94 7.27L14.94 7.27Q14.76 7.71 14.45 8.26Q14.14 8.81 13.76 9.39Q13.38 9.98 12.97 10.58Q12.56 11.17 12.18 11.69ZM15.30 14.35L15.30 14.35Q15.44 14.74 15.64 15.01Q15.83 15.27 16.06 15.47L16.06 15.47Q16.59 15.92 17.43 16.00L17.43 16.00Q17.85 16.04 18.18 15.95Q18.51 15.86 18.83 15.62L18.83 15.62Q19.28 15.23 19.62 14.41Q19.96 13.58 20.24 12.41Q20.51 11.24 20.72 9.77Q20.93 8.30 21.13 6.59L21.13 6.59Q21.17 6.30 21.13 6.15Q21.08 5.99 20.85 5.80L20.85 5.80Q20.62 5.63 20.36 5.45Q20.09 5.28 19.85 5.19Q19.61 5.11 19.45 5.18Q19.29 5.25 19.28 5.56L19.28 5.56Q19.19 6.26 19.07 7.20Q18.96 8.15 18.80 9.14Q18.65 10.14 18.47 11.10Q18.28 12.05 18.08 12.78Q17.88 13.51 17.65 13.92Q17.42 14.34 17.16 14.24L17.16 14.24Q16.97 14.15 16.90 13.76Q16.83 13.36 16.86 12.76Q16.88 12.17 16.98 11.42Q17.08 10.68 17.22 9.92Q17.36 9.16 17.52 8.41Q17.68 7.67 17.82 7.07L17.82 7.07Q17.98 6.40 17.53 5.95L17.53 5.95Q17.32 5.75 17.09 5.60Q16.87 5.45 16.63 5.35L16.63 5.35Q16.38 5.24 16.25 5.30Q16.11 5.36 16.04 5.67L16.04 5.67Q15.79 6.75 15.55 7.97Q15.30 9.20 15.16 10.38Q15.02 11.56 15.03 12.61Q15.04 13.65 15.30 14.35ZM25.23 11.38L25.23 11.38Q25.13 10.75 25.03 10.07Q24.93 9.39 24.84 8.77Q24.75 8.15 24.68 7.62Q24.61 7.10 24.57 6.78L24.57 6.78Q24.51 6.36 24.41 6.14Q24.30 5.92 24.05 5.78L24.05 5.78Q23.74 5.59 23.46 5.46Q23.17 5.33 22.88 5.22L22.88 5.22Q22.64 5.14 22.48 5.22Q22.33 5.31 22.26 5.63L22.26 5.63Q22.15 6.22 22.02 7Q21.90 7.78 21.78 8.66Q21.66 9.53 21.54 10.42Q21.42 11.31 21.33 12.11Q21.24 12.91 21.17 13.54Q21.10 14.18 21.07 14.55L21.07 14.55Q21.03 14.91 21.09 15.11Q21.15 15.32 21.35 15.47L21.35 15.47Q21.55 15.67 21.78 15.76Q22.01 15.85 22.23 15.93L22.23 15.93Q22.47 16.03 22.56 15.97Q22.65 15.90 22.68 15.67L22.68 15.67Q22.74 15.16 22.83 14.50Q22.92 13.85 23.02 13.10Q23.13 12.36 23.25 11.56Q23.37 10.75 23.48 9.97L23.48 9.97Q23.59 10.63 23.72 11.28Q23.84 11.94 23.97 12.57Q24.09 13.19 24.23 13.73Q24.36 14.28 24.49 14.70L24.49 14.70Q24.65 15.30 25.06 15.54L25.06 15.54Q25.28 15.65 25.50 15.74Q25.72 15.83 25.94 15.90L25.94 15.90Q26.45 16.07 26.49 15.54L26.49 15.54Q26.61 14.57 26.77 13.38Q26.94 12.18 27.10 10.96Q27.27 9.74 27.45 8.60Q27.62 7.46 27.78 6.61L27.78 6.61Q27.83 6.31 27.79 6.11Q27.75 5.91 27.51 5.71L27.51 5.71Q27.22 5.47 27.05 5.39Q26.88 5.31 26.63 5.22Q26.38 5.14 26.24 5.21Q26.11 5.29 26.05 5.60L26.05 5.60Q25.84 6.79 25.61 8.28Q25.38 9.77 25.23 11.38ZM33.47 9.51L33.47 9.51Q33.50 9.31 33.52 9.03Q33.54 8.75 33.55 8.45Q33.56 8.15 33.55 7.84Q33.54 7.53 33.52 7.29L33.52 7.29Q33.46 6.85 33.33 6.49Q33.19 6.13 32.91 5.84L32.91 5.84Q32.62 5.52 32.18 5.30Q31.74 5.08 31.32 5.01L31.32 5.01Q31.02 4.96 30.66 5.01Q30.30 5.07 30.00 5.36L30.00 5.36Q29.53 5.82 29.13 6.50Q28.74 7.17 28.45 7.96Q28.15 8.75 27.96 9.60Q27.78 10.46 27.71 11.30Q27.64 12.14 27.70 12.90Q27.76 13.66 27.97 14.27L27.97 14.27Q28.08 14.66 28.31 14.99Q28.53 15.32 28.77 15.51L28.77 15.51Q29.41 15.96 30.16 16.10L30.16 16.10Q30.98 16.30 31.65 15.72L31.65 15.72Q32.16 15.26 32.58 14.42Q33.00 13.58 33.29 12.39L33.29 12.39Q33.36 12.04 33.35 11.82Q33.33 11.59 33.18 11.30L33.18 11.30Q33.10 11.14 33.00 10.96Q32.90 10.78 32.79 10.63L32.79 10.63Q32.63 10.39 32.45 10.32Q32.26 10.25 31.96 10.30L31.96 10.30Q31.71 10.36 31.36 10.42Q31.01 10.49 30.69 10.58L30.69 10.58Q30.35 10.65 30.14 10.74Q29.93 10.82 30.00 11.14L30.00 11.14Q30.16 11.86 30.45 12.17Q30.74 12.49 31.28 12.45L31.28 12.45Q31.14 12.88 30.97 13.27Q30.81 13.65 30.64 13.92Q30.46 14.18 30.29 14.31Q30.11 14.43 29.95 14.35L29.95 14.35Q29.75 14.25 29.65 13.85Q29.55 13.45 29.54 12.89Q29.53 12.32 29.60 11.66Q29.68 11.00 29.83 10.40L29.83 10.40Q30.00 9.67 30.23 9.02Q30.46 8.36 30.70 7.88Q30.94 7.39 31.17 7.13Q31.40 6.86 31.57 6.93L31.57 6.93Q31.65 6.96 31.69 7.11Q31.72 7.27 31.75 7.48L31.75 7.48Q31.77 7.59 31.77 7.71Q31.78 7.83 31.78 7.95L31.78 7.95Q31.78 8.08 31.79 8.19Q31.79 8.30 31.81 8.41L31.81 8.41Q31.86 9.02 32.15 9.39Q32.44 9.77 33.04 9.88L33.04 9.88Q33.26 9.91 33.34 9.83Q33.42 9.74 33.47 9.51ZM34.36 14.35L34.36 14.35Q34.50 14.74 34.69 15.01Q34.89 15.27 35.11 15.47L35.11 15.47Q35.64 15.92 36.48 16.00L36.48 16.00Q36.90 16.04 37.23 15.95Q37.56 15.86 37.88 15.62L37.88 15.62Q38.33 15.23 38.68 14.41Q39.02 13.58 39.29 12.41Q39.56 11.24 39.77 9.77Q39.98 8.30 40.18 6.59L40.18 6.59Q40.22 6.30 40.18 6.15Q40.14 5.99 39.90 5.80L39.90 5.80Q39.68 5.63 39.41 5.45Q39.14 5.28 38.91 5.19Q38.67 5.11 38.51 5.18Q38.35 5.25 38.33 5.56L38.33 5.56Q38.25 6.26 38.13 7.20Q38.01 8.15 37.86 9.14Q37.70 10.14 37.52 11.10Q37.34 12.05 37.14 12.78Q36.93 13.51 36.70 13.92Q36.47 14.34 36.22 14.24L36.22 14.24Q36.02 14.15 35.95 13.76Q35.88 13.36 35.91 12.76Q35.94 12.17 36.04 11.42Q36.13 10.68 36.27 9.92Q36.41 9.16 36.58 8.41Q36.74 7.67 36.88 7.07L36.88 7.07Q37.03 6.40 36.58 5.95L36.58 5.95Q36.37 5.75 36.15 5.60Q35.92 5.45 35.69 5.35L35.69 5.35Q35.43 5.24 35.30 5.30Q35.17 5.36 35.10 5.67L35.10 5.67Q34.85 6.75 34.60 7.97Q34.36 9.20 34.22 10.38Q34.08 11.56 34.08 12.61Q34.09 13.65 34.36 14.35ZM41.30 5.84L41.30 5.84L40.24 13.93Q40.21 14.29 40.29 14.56Q40.36 14.83 40.52 15.02L40.52 15.02Q40.70 15.27 40.84 15.44Q40.98 15.60 41.13 15.75L41.13 15.75Q41.27 15.89 41.46 15.97Q41.65 16.04 42.03 15.90L42.03 15.90Q42.59 15.75 43.20 15.57Q43.82 15.39 44.41 15.22L44.41 15.22Q44.65 15.15 44.70 15.04Q44.74 14.94 44.69 14.66L44.69 14.66Q44.62 14.41 44.55 14.17Q44.48 13.93 44.37 13.66L44.37 13.66Q44.27 13.43 44.12 13.34Q43.97 13.26 43.74 13.29L43.74 13.29Q43.29 13.33 42.90 13.39Q42.50 13.45 42.08 13.57L42.08 13.57Q42.15 13.20 42.22 12.82Q42.29 12.43 42.36 12.03L42.36 12.03Q42.88 11.87 43.44 11.74Q43.99 11.61 44.52 11.47L44.52 11.47Q44.76 11.40 44.81 11.30Q44.87 11.20 44.80 10.91L44.80 10.91Q44.74 10.65 44.68 10.42Q44.62 10.18 44.51 9.93L44.51 9.93Q44.41 9.69 44.27 9.61Q44.13 9.53 43.89 9.55L43.89 9.55Q43.61 9.56 43.35 9.58Q43.09 9.60 42.83 9.66L42.83 9.66Q42.97 9.03 43.08 8.46Q43.19 7.88 43.30 7.36L43.30 7.36Q43.89 7.25 44.43 7.17Q44.97 7.08 45.46 7.01L45.46 7.01Q45.70 6.97 45.76 6.87Q45.82 6.76 45.78 6.47L45.78 6.47Q45.72 6.22 45.68 6.01Q45.63 5.80 45.51 5.53L45.51 5.53Q45.37 5.03 44.91 5.05L44.91 5.05Q43.93 5.11 42.97 5.35Q42.01 5.59 41.30 5.84ZM47.80 12.59L47.80 12.59Q48.03 13.01 48.32 13.43Q48.61 13.86 48.90 14.25Q49.20 14.64 49.48 14.98Q49.76 15.32 49.97 15.54L49.97 15.54Q50.29 15.83 50.54 15.87Q50.79 15.90 50.99 15.82L50.99 15.82Q51.16 15.78 51.28 15.74Q51.39 15.71 51.55 15.51L51.55 15.51Q51.69 15.36 51.70 15.22Q51.72 15.08 51.52 14.84L51.52 14.84Q51.28 14.56 51.02 14.20Q50.75 13.83 50.48 13.45Q50.20 13.06 49.95 12.67Q49.70 12.28 49.49 11.94L49.49 11.94Q50.47 11.31 51.16 10.59Q51.84 9.87 52.11 9.03L52.11 9.03Q52.29 8.54 52.14 7.74L52.14 7.74Q51.98 7.03 51.72 6.54Q51.46 6.05 51.17 5.64L51.17 5.64Q50.81 5.18 50.32 5.08Q49.84 4.97 49.31 5.10Q48.78 5.22 48.22 5.51Q47.67 5.80 47.17 6.10L47.17 6.10Q47.01 6.20 46.87 6.77Q46.73 7.34 46.59 8.16Q46.45 8.99 46.33 9.96Q46.21 10.93 46.12 11.85Q46.02 12.77 45.94 13.52Q45.86 14.28 45.82 14.67L45.82 14.67Q45.79 15.04 45.85 15.25Q45.91 15.47 46.07 15.62L46.07 15.62Q46.24 15.76 46.44 15.82Q46.63 15.88 46.87 15.97L46.87 15.97Q47.10 16.04 47.18 15.97Q47.26 15.90 47.31 15.68L47.31 15.68Q47.42 14.92 47.54 14.16Q47.66 13.40 47.80 12.59ZM48.78 7.60L48.78 7.60Q49.10 7.39 49.39 7.31Q49.69 7.22 49.92 7.22L49.92 7.22Q50.41 7.22 50.53 7.55L50.53 7.55Q50.58 7.74 50.45 8.11Q50.32 8.47 50.02 8.88Q49.71 9.28 49.25 9.69Q48.79 10.09 48.20 10.37L48.20 10.37Q48.37 9.58 48.50 8.88Q48.64 8.19 48.78 7.60ZM55.09 5.88L55.09 5.88Q54.87 5.68 54.57 5.51Q54.28 5.33 54.03 5.25L54.03 5.25Q53.77 5.15 53.65 5.22Q53.52 5.29 53.45 5.60L53.45 5.60Q53.35 6.12 53.23 6.86Q53.12 7.60 53.00 8.44Q52.88 9.28 52.77 10.18Q52.65 11.07 52.56 11.90Q52.46 12.73 52.39 13.43Q52.32 14.14 52.29 14.62L52.29 14.62Q52.26 14.98 52.33 15.18Q52.39 15.39 52.60 15.54L52.60 15.54Q52.79 15.69 53.02 15.79Q53.24 15.89 53.48 15.99L53.48 15.99Q53.72 16.07 53.80 16.00Q53.89 15.93 53.93 15.69L53.93 15.69Q54.01 15.08 54.12 14.32Q54.22 13.55 54.35 12.73Q54.47 11.90 54.61 11.05Q54.74 10.19 54.87 9.40Q55.01 8.61 55.13 7.91Q55.26 7.21 55.37 6.69L55.37 6.69Q55.43 6.40 55.38 6.24Q55.33 6.08 55.09 5.88ZM60.12 12.89L60.12 12.89Q59.26 12.54 58.73 13.34L58.73 13.34Q58.00 14.49 57.62 14.29L57.62 14.29Q57.43 14.21 57.34 13.85Q57.25 13.48 57.23 12.94Q57.22 12.40 57.28 11.76Q57.34 11.12 57.47 10.49L57.47 10.49Q57.60 9.90 57.81 9.24Q58.02 8.58 58.25 8.04Q58.49 7.49 58.72 7.15Q58.94 6.82 59.11 6.89L59.11 6.89Q59.28 6.97 59.31 7.27Q59.35 7.57 59.35 7.94L59.35 7.94Q59.35 8.05 59.35 8.16Q59.36 8.27 59.37 8.39L59.37 8.39Q59.46 8.97 59.71 9.32Q59.96 9.66 60.52 9.81L60.52 9.81Q60.82 9.90 60.89 9.78Q60.96 9.66 61.01 9.46L61.01 9.46Q61.10 9.04 61.12 8.43Q61.15 7.81 61.12 7.29L61.12 7.29Q61.10 6.85 60.98 6.50Q60.86 6.15 60.52 5.80L60.52 5.80Q60.20 5.52 59.72 5.27Q59.23 5.03 58.77 4.97L58.77 4.97Q58.46 4.94 58.11 5.05Q57.76 5.17 57.41 5.56L57.41 5.56Q56.98 6.06 56.62 6.76Q56.25 7.45 55.99 8.25Q55.72 9.06 55.55 9.92Q55.38 10.78 55.34 11.61Q55.29 12.45 55.36 13.19Q55.43 13.93 55.64 14.50L55.64 14.50Q55.76 14.90 56.01 15.19Q56.25 15.48 56.49 15.64L56.49 15.64Q56.77 15.78 57.13 15.94Q57.48 16.10 57.92 16.16L57.92 16.16Q58.34 16.21 58.77 16.05Q59.19 15.89 59.46 15.62L59.46 15.62Q59.71 15.34 59.96 14.92Q60.21 14.50 60.37 14.01L60.37 14.01Q60.51 13.59 60.49 13.31Q60.47 13.03 60.12 12.89Z"></path></g><defs data-v-423bf9ae=""><linearGradient data-v-423bf9ae="" gradientTransform="rotate(25)" id="a3e54bc7-ccb2-4827-832e-00fa740d5f25" x1="0%" y1="0%" x2="100%" y2="0%"><stop data-v-423bf9ae="" offset="0%" style="stop-color: rgb(0, 102, 120); stop-opacity: 1;"></stop><stop data-v-423bf9ae="" offset="100%" style="stop-color: rgb(79, 168, 255); stop-opacity: 1;"></stop></linearGradient></defs><g data-v-423bf9ae="" id="3d20acd0-52eb-4aa2-871d-f9d6d28bbe30" transform="matrix(2.1616813590331323,0,0,2.1616813590331323,56.914777008893694,-62.90104863278788)" stroke="none" fill="url(#a3e54bc7-ccb2-4827-832e-00fa740d5f25)"><path d="M14.014 46.323c.122.122.25.183.371.161a.31.31 0 00.16-.083c.59 1.836 1.722 3.666 3.148 4.758.822.63 1.743 1.015 2.714 1.015.993 0 1.932-.403 2.769-1.058 1.401-1.096 2.512-2.902 3.094-4.715a.306.306 0 00.16.083c.104.019.213-.023.32-.114.266-.226.518-.754.632-1.396.149-.837.014-1.57-.301-1.718a.218.218 0 00-.071-.022c-.097-.017-.199.019-.298.097l-.005.006v-.001l-.003.002-.001-.018c-.378-1.435-.854-2.313-1.346-2.837a1.47 1.47 0 00-.304-.129c-.013.211.229.533.254.846-.682-.317-1.333-.812-2.286-.846a12.002 12.002 0 00-.711-.001c-2.297.821-4.824-.108-4.824-.108-2.88-.267-3.337 2.726-3.372 3.068a.21.21 0 00-.002.025h-.001c-.103-.083-.207-.121-.307-.104a.305.305 0 00-.123.053c-.089.064-.16.185-.212.34-.029.403-.047.81-.052 1.23.006.04.009.077.017.117.108.601.333 1.102.58 1.349zM73.502 46.542c.121.121.248.181.367.16a.308.308 0 00.158-.083c.584 1.816 1.703 3.625 3.114 4.705.813.623 1.724 1.004 2.685 1.004.981 0 1.911-.398 2.738-1.045 1.386-1.085 2.483-2.871 3.06-4.664a.316.316 0 00.158.083c.104.018.211-.024.317-.113.263-.223.512-.746.624-1.381.148-.828.015-1.553-.296-1.7a.272.272 0 00-.07-.022c-.097-.016-.197.019-.295.097l-.006.006-.001-.002-.003.002-.001-.018c-.374-1.419-.845-2.289-1.331-2.806a1.513 1.513 0 00-.3-.128c-.013.209.226.528.251.838-.674-.314-1.319-.802-2.261-.838-.22-.008-.459-.006-.703 0-2.272.812-4.771-.107-4.771-.107-2.849-.265-3.301 2.695-3.336 3.034a.194.194 0 00-.002.024h-.001c-.101-.082-.204-.12-.303-.102a.277.277 0 00-.121.052c-.09.064-.159.183-.21.336-.029.398-.046.801-.053 1.217.006.039.01.077.017.116.107.595.331 1.09.575 1.335zM41.685 45.554c.155.155.317.232.472.206a.393.393 0 00.203-.106c.751 2.335 2.189 4.661 4.003 6.05 1.046.801 2.217 1.29 3.452 1.29 1.262 0 2.458-.513 3.52-1.344 1.782-1.394 3.194-3.691 3.936-5.996a.404.404 0 00.203.106c.132.023.271-.031.407-.146.339-.287.658-.958.804-1.774.189-1.064.019-1.998-.381-2.186a.403.403 0 00-.091-.029c-.124-.021-.254.024-.38.124l-.007.008-.001-.002-.004.003-.002-.023c-.48-1.825-1.086-2.942-1.711-3.607a1.899 1.899 0 00-.386-.164c-.016.269.291.678.323 1.076-.867-.404-1.696-1.031-2.906-1.076a15.958 15.958 0 00-.904-.002c-2.922 1.044-6.134-.137-6.134-.137-3.663-.34-4.244 3.465-4.289 3.901l-.002.031h-.001c-.13-.105-.263-.154-.39-.132a.386.386 0 00-.156.067c-.115.082-.205.236-.271.432a28.33 28.33 0 00-.067 1.565c.008.05.012.099.021.149.137.765.425 1.402.739 1.716z"></path><path d="M32.931 55.313c-1.32-1.24-2.57-1.352-2.972-1.445-1.365-.32-3.018-.184-3.9-.458-.104.864-2.619 3.711-4.269 5.494l-.715-2.755c.538-.316.654-1.017.654-1.597H19.02c0 .575.116 1.269.642 1.589l-.702 2.763c-1.65-1.784-4.166-4.63-4.27-5.495-.881.275-2.535.139-3.899.459-.693.161-3.915.367-5.659 6.366-.236.814-.153 1.7.231 2.426 1.428 2.702 8.939 3.532 15.012 3.531 2.642.001 5.556-.156 8.123-.557a6.084 6.084 0 01.117-2.907c.973-3.347 2.419-5.824 4.316-7.414z"></path><path d="M13.348 47.024c.643 1.728 1.659 3.406 2.917 4.635.711.696 1.5 1.246 2.341 1.58a4.872 4.872 0 001.801.355c.62 0 1.224-.127 1.802-.355.87-.346 1.685-.923 2.416-1.653 1.227-1.225 2.218-2.877 2.848-4.576.484-.142.993-1.05 1.199-2.209.225-1.258.012-2.355-.473-2.538.018-.307.029-.617.028-.936-.012-4.559-2.685-7.209-6.899-7.492-3.675-.247-6.443 1.214-7.704 3.641-.424.816-.667 1.838-.759 2.947a7.519 7.519 0 00-.225 1.799h.013l-.001.015-.028.003c-.537.094-.781 1.24-.545 2.561.216 1.214.763 2.152 1.269 2.223zm.121-3.397c.052-.155.123-.276.212-.34a.305.305 0 01.123-.053c.1-.018.204.021.307.104h.001a.21.21 0 01.002-.025c.035-.342.492-3.335 3.372-3.068 0 0 2.526.929 4.824.108.247-.005.488-.007.711.001.952.035 1.604.529 2.286.846-.025-.313-.267-.635-.254-.846.109.031.208.077.304.129.492.523.968 1.402 1.346 2.837l.001.018.003-.002v.002l.005-.006c.099-.078.202-.114.298-.097a.28.28 0 01.071.022c.315.147.45.881.301 1.718-.114.642-.366 1.17-.632 1.396-.107.09-.216.132-.32.114a.306.306 0 01-.16-.083c-.583 1.813-1.693 3.619-3.094 4.715-.836.654-1.775 1.058-2.769 1.058-.971 0-1.892-.385-2.714-1.015-1.427-1.092-2.559-2.922-3.148-4.758a.31.31 0 01-.16.083c-.121.021-.249-.039-.371-.161-.248-.248-.473-.748-.581-1.349-.007-.04-.011-.078-.017-.117.006-.421.024-.828.053-1.231zM94.87 60.301c-1.725-5.934-4.911-6.138-5.598-6.298-1.35-.315-2.985-.182-3.856-.454-.153 1.277-2.611 2.294-5.622 2.294s-5.469-1.017-5.621-2.294c-.873.274-2.508.139-3.857.454-.427.1-1.823.218-3.232 1.724 1.67 1.593 2.959 3.933 3.851 7.001a6.1 6.1 0 01.138 2.798c2.697.48 5.87.667 8.723.666 6.005.002 13.434-.82 14.846-3.492a3.251 3.251 0 00.228-2.399z"></path><path d="M72.844 47.235c.636 1.709 1.642 3.37 2.885 4.583.704.688 1.484 1.232 2.316 1.563.571.226 1.168.353 1.781.353s1.209-.127 1.781-.353c.861-.342 1.667-.913 2.39-1.636 1.213-1.21 2.193-2.845 2.816-4.525.479-.141.981-1.039 1.186-2.185.223-1.244.013-2.329-.467-2.51.018-.304.028-.611.027-.926-.011-4.509-2.654-7.486-6.823-7.766-3.634-.244-6.372 1.2-7.619 3.601-.42.807-.659 2.173-.75 3.271a7.403 7.403 0 00-.223 1.779h.014l-.002.014c-.009.001-.018.001-.026.003-.531.093-.773 1.227-.541 2.533.215 1.203.756 2.131 1.255 2.201zm.121-3.36c.051-.153.12-.272.21-.336a.277.277 0 01.121-.052c.099-.018.202.021.303.102h.001l.002-.024c.035-.339.487-3.299 3.336-3.034 0 0 2.498.918 4.771.107.244-.005.483-.007.703 0 .941.036 1.587.523 2.261.838-.025-.31-.264-.628-.251-.838.107.031.205.077.3.128.486.518.957 1.387 1.331 2.806l.001.018.003-.002.001.002.006-.006c.098-.078.198-.113.295-.097a.318.318 0 01.07.022c.311.146.444.872.296 1.7-.112.635-.361 1.158-.624 1.381-.106.089-.214.131-.317.113a.312.312 0 01-.158-.083c-.576 1.793-1.674 3.579-3.06 4.664-.827.646-1.757 1.045-2.738 1.045-.961 0-1.871-.381-2.685-1.004-1.411-1.08-2.53-2.889-3.114-4.705a.312.312 0 01-.158.083c-.119.021-.246-.04-.367-.16-.244-.245-.468-.74-.573-1.334-.007-.039-.011-.077-.017-.116.005-.416.022-.819.051-1.218zM40.838 46.445c.817 2.197 2.11 4.333 3.709 5.893.905.886 1.907 1.585 2.977 2.01.736.291 1.502.453 2.291.453s1.555-.162 2.291-.453c1.106-.439 2.144-1.173 3.072-2.102 1.56-1.558 2.82-3.659 3.621-5.819.616-.182 1.263-1.335 1.525-2.809.285-1.599.016-2.994-.602-3.227.022-.39.037-.785.036-1.19-.015-5.797-3.413-9.625-8.773-9.984-4.671-.313-8.192 1.542-9.795 4.628-.54 1.039-.848 2.794-.966 4.206a9.585 9.585 0 00-.286 2.288h.018a.11.11 0 01-.002.018l-.034.004c-.684.119-.995 1.577-.695 3.256.275 1.545.971 2.737 1.613 2.828zm.155-4.32c.066-.196.156-.35.271-.432a.36.36 0 01.156-.067c.127-.022.26.027.39.132l.003-.031c.045-.436.626-4.242 4.289-3.901 0 0 3.211 1.181 6.134.137.313-.006.62-.009.904.002 1.21.045 2.039.672 2.906 1.076-.032-.398-.339-.808-.323-1.076.139.04.265.099.386.164.625.666 1.23 1.782 1.711 3.607l.002.023c.002 0 .002-.002.004-.003l.001.002.007-.008c.126-.1.256-.145.38-.124a.403.403 0 01.091.029c.399.188.57 1.121.381 2.186-.146.816-.465 1.487-.804 1.774-.137.115-.275.169-.407.146a.4.4 0 01-.203-.106c-.741 2.305-2.153 4.602-3.936 5.996-1.063.831-2.258 1.344-3.52 1.344-1.235 0-2.406-.489-3.452-1.29-1.814-1.389-3.252-3.715-4.003-6.05a.396.396 0 01-.203.106c-.154.026-.316-.05-.472-.206-.314-.314-.602-.952-.738-1.715-.009-.051-.014-.1-.021-.149.007-.535.03-1.053.066-1.566z"></path><path d="M61.961 55.147c-1.735-.406-3.838-.233-4.959-.584-.196 1.643-3.358 2.948-7.228 2.948-3.871 0-7.031-1.306-7.229-2.948-1.121.352-3.223.178-4.959.584-.881.206-4.978.468-7.195 8.096-.301 1.036-.195 2.162.295 3.085 1.814 3.432 11.351 4.489 19.067 4.489h.04c7.717 0 17.253-1.058 19.067-4.489.49-.923.596-2.05.296-3.085-2.217-7.628-6.313-7.889-7.195-8.096z"></path></g><!----></svg>