<svg data-v-fde0c5aa="" xmlns="http://www.w3.org/2000/svg" viewBox="0 0 300 300" class="font"><!----><defs data-v-fde0c5aa=""><!----></defs><rect data-v-fde0c5aa="" fill="#E1EFF7" x="0" y="0" width="300px" height="300px" class="logo-background-square"></rect><defs data-v-fde0c5aa=""><linearGradient data-v-fde0c5aa="" gradientTransform="rotate(25)" id="239e5ba0-aa9a-4ae0-be69-6fd35ce1a699" x1="0%" y1="0%" x2="100%" y2="0%"><stop data-v-fde0c5aa="" offset="0%" stop-color="#006678" stop-opacity="1"></stop><stop data-v-fde0c5aa="" offset="100%" stop-color="#4FA8FF" stop-opacity="1"></stop></linearGradient></defs><g data-v-fde0c5aa="" id="cd69b6d3-b6b4-4c48-b71c-543fce9d9395" fill="url(#239e5ba0-aa9a-4ae0-be69-6fd35ce1a699)" transform="matrix(3.5695340386655863,0,0,3.5695340386655863,41.77652955911442,112.27810099884006)"><path d="M5.31 9.51L5.31 9.51Q5.33 9.31 5.36 9.03Q5.38 8.75 5.38 8.45Q5.39 8.15 5.38 7.84Q5.38 7.53 5.35 7.29L5.35 7.29Q5.29 6.85 5.16 6.49Q5.03 6.13 4.75 5.84L4.75 5.84Q4.45 5.52 4.01 5.30Q3.57 5.08 3.15 5.01L3.15 5.01Q2.86 4.96 2.49 5.01Q2.13 5.07 1.83 5.36L1.83 5.36Q1.36 5.82 0.97 6.50Q0.57 7.17 0.28 7.96Q-0.01 8.75-0.20 9.60Q-0.39 10.46-0.46 11.30Q-0.53 12.14-0.47 12.90Q-0.41 13.66-0.20 14.27L-0.20 14.27Q-0.08 14.66 0.14 14.99Q0.36 15.32 0.60 15.51L0.60 15.51Q1.25 15.96 1.99 16.10L1.99 16.10Q2.81 16.30 3.49 15.72L3.49 15.72Q3.99 15.26 4.41 14.42Q4.83 13.58 5.12 12.39L5.12 12.39Q5.19 12.04 5.18 11.82Q5.17 11.59 5.01 11.30L5.01 11.30Q4.93 11.14 4.83 10.96Q4.73 10.78 4.62 10.63L4.62 10.63Q4.47 10.39 4.28 10.32Q4.09 10.25 3.79 10.30L3.79 10.30Q3.54 10.36 3.19 10.42Q2.84 10.49 2.52 10.58L2.52 10.58Q2.18 10.65 1.97 10.74Q1.76 10.82 1.83 11.14L1.83 11.14Q1.99 11.86 2.28 12.17Q2.58 12.49 3.11 12.45L3.11 12.45Q2.97 12.88 2.81 13.27Q2.65 13.65 2.47 13.92Q2.30 14.18 2.12 14.31Q1.95 14.43 1.78 14.35L1.78 14.35Q1.58 14.25 1.48 13.85Q1.39 13.45 1.37 12.89Q1.36 12.32 1.44 11.66Q1.51 11.00 1.67 10.40L1.67 10.40Q1.83 9.67 2.06 9.02Q2.30 8.36 2.53 7.88Q2.77 7.39 3.00 7.13Q3.23 6.86 3.40 6.93L3.40 6.93Q3.49 6.96 3.52 7.11Q3.56 7.27 3.58 7.48L3.58 7.48Q3.60 7.59 3.60 7.71Q3.61 7.83 3.61 7.95L3.61 7.95Q3.61 8.08 3.62 8.19Q3.63 8.30 3.64 8.41L3.64 8.41Q3.70 9.02 3.98 9.39Q4.27 9.77 4.87 9.88L4.87 9.88Q5.10 9.91 5.17 9.83Q5.25 9.74 5.31 9.51ZM8.43 5.88L8.43 5.88Q8.20 5.68 7.91 5.51Q7.62 5.33 7.36 5.25L7.36 5.25Q7.11 5.15 6.99 5.22Q6.86 5.29 6.79 5.60L6.79 5.60Q6.69 6.12 6.57 6.86Q6.45 7.60 6.33 8.44Q6.22 9.28 6.10 10.18Q5.99 11.07 5.89 11.90Q5.80 12.73 5.73 13.43Q5.66 14.14 5.63 14.62L5.63 14.62Q5.60 14.98 5.66 15.18Q5.73 15.39 5.94 15.54L5.94 15.54Q6.13 15.69 6.36 15.79Q6.58 15.89 6.82 15.99L6.82 15.99Q7.06 16.07 7.14 16.00Q7.22 15.93 7.27 15.69L7.27 15.69Q7.35 15.08 7.46 14.32Q7.56 13.55 7.69 12.73Q7.81 11.90 7.95 11.05Q8.08 10.19 8.21 9.40Q8.34 8.61 8.47 7.91Q8.60 7.21 8.71 6.69L8.71 6.69Q8.76 6.40 8.71 6.24Q8.67 6.08 8.43 5.88ZM12.18 11.69L12.18 11.69Q12.36 12.11 12.59 12.57Q12.81 13.03 13.02 13.46Q13.23 13.89 13.43 14.25Q13.62 14.62 13.78 14.87L13.78 14.87Q13.93 15.11 13.90 15.25Q13.87 15.40 13.68 15.54L13.68 15.54Q13.57 15.64 13.40 15.71Q13.23 15.78 13.08 15.81L13.08 15.81Q12.84 15.90 12.59 15.85Q12.33 15.79 12.08 15.39L12.08 15.39Q11.98 15.22 11.81 14.92Q11.63 14.63 11.42 14.27Q11.21 13.90 11.00 13.49Q10.78 13.08 10.60 12.67L10.60 12.67Q10.47 13.54 10.37 14.30Q10.26 15.06 10.16 15.69L10.16 15.69Q10.16 15.90 10.09 15.99Q10.02 16.07 9.90 16.06Q9.79 16.04 9.62 15.97Q9.45 15.89 9.24 15.81L9.24 15.81Q8.83 15.64 8.65 15.39Q8.47 15.13 8.51 14.62L8.51 14.62Q8.54 14.14 8.62 13.42Q8.69 12.70 8.80 11.85Q8.90 11.00 9.02 10.09Q9.14 9.18 9.26 8.32Q9.38 7.46 9.50 6.71Q9.62 5.96 9.72 5.45L9.72 5.45Q9.79 5.14 9.92 5.07Q10.05 5.00 10.29 5.10L10.29 5.10Q10.54 5.18 10.84 5.36Q11.13 5.53 11.35 5.73L11.35 5.73Q11.59 5.94 11.65 6.08Q11.70 6.23 11.63 6.52L11.63 6.52Q11.51 7.10 11.38 7.86Q11.24 8.62 11.09 9.55L11.09 9.55Q11.45 9.00 11.87 8.40Q12.28 7.80 12.66 7.21Q13.03 6.62 13.36 6.11Q13.69 5.60 13.89 5.25L13.89 5.25Q14.01 5.01 14.14 5.01L14.14 5.01Q14.29 5.01 14.46 5.21L14.46 5.21Q14.64 5.40 14.78 5.66Q14.91 5.91 15.02 6.20L15.02 6.20Q15.11 6.44 15.09 6.68Q15.08 6.92 14.94 7.27L14.94 7.27Q14.76 7.71 14.45 8.26Q14.14 8.81 13.76 9.39Q13.38 9.98 12.97 10.58Q12.56 11.17 12.18 11.69ZM15.30 14.35L15.30 14.35Q15.44 14.74 15.64 15.01Q15.83 15.27 16.06 15.47L16.06 15.47Q16.59 15.92 17.43 16.00L17.43 16.00Q17.85 16.04 18.18 15.95Q18.51 15.86 18.83 15.62L18.83 15.62Q19.28 15.23 19.62 14.41Q19.96 13.58 20.24 12.41Q20.51 11.24 20.72 9.77Q20.93 8.30 21.13 6.59L21.13 6.59Q21.17 6.30 21.13 6.15Q21.08 5.99 20.85 5.80L20.85 5.80Q20.62 5.63 20.36 5.45Q20.09 5.28 19.85 5.19Q19.61 5.11 19.45 5.18Q19.29 5.25 19.28 5.56L19.28 5.56Q19.19 6.26 19.07 7.20Q18.96 8.15 18.80 9.14Q18.65 10.14 18.47 11.10Q18.28 12.05 18.08 12.78Q17.88 13.51 17.65 13.92Q17.42 14.34 17.16 14.24L17.16 14.24Q16.97 14.15 16.90 13.76Q16.83 13.36 16.86 12.76Q16.88 12.17 16.98 11.42Q17.08 10.68 17.22 9.92Q17.36 9.16 17.52 8.41Q17.68 7.67 17.82 7.07L17.82 7.07Q17.98 6.40 17.53 5.95L17.53 5.95Q17.32 5.75 17.09 5.60Q16.87 5.45 16.63 5.35L16.63 5.35Q16.38 5.24 16.25 5.30Q16.11 5.36 16.04 5.67L16.04 5.67Q15.79 6.75 15.55 7.97Q15.30 9.20 15.16 10.38Q15.02 11.56 15.03 12.61Q15.04 13.65 15.30 14.35ZM25.23 11.38L25.23 11.38Q25.13 10.75 25.03 10.07Q24.93 9.39 24.84 8.77Q24.75 8.15 24.68 7.62Q24.61 7.10 24.57 6.78L24.57 6.78Q24.51 6.36 24.41 6.14Q24.30 5.92 24.05 5.78L24.05 5.78Q23.74 5.59 23.46 5.46Q23.17 5.33 22.88 5.22L22.88 5.22Q22.64 5.14 22.48 5.22Q22.33 5.31 22.26 5.63L22.26 5.63Q22.15 6.22 22.02 7Q21.90 7.78 21.78 8.66Q21.66 9.53 21.54 10.42Q21.42 11.31 21.33 12.11Q21.24 12.91 21.17 13.54Q21.10 14.18 21.07 14.55L21.07 14.55Q21.03 14.91 21.09 15.11Q21.15 15.32 21.35 15.47L21.35 15.47Q21.55 15.67 21.78 15.76Q22.01 15.85 22.23 15.93L22.23 15.93Q22.47 16.03 22.56 15.97Q22.65 15.90 22.68 15.67L22.68 15.67Q22.74 15.16 22.83 14.50Q22.92 13.85 23.02 13.10Q23.13 12.36 23.25 11.56Q23.37 10.75 23.48 9.97L23.48 9.97Q23.59 10.63 23.72 11.28Q23.84 11.94 23.97 12.57Q24.09 13.19 24.23 13.73Q24.36 14.28 24.49 14.70L24.49 14.70Q24.65 15.30 25.06 15.54L25.06 15.54Q25.28 15.65 25.50 15.74Q25.72 15.83 25.94 15.90L25.94 15.90Q26.45 16.07 26.49 15.54L26.49 15.54Q26.61 14.57 26.77 13.38Q26.94 12.18 27.10 10.96Q27.27 9.74 27.45 8.60Q27.62 7.46 27.78 6.61L27.78 6.61Q27.83 6.31 27.79 6.11Q27.75 5.91 27.51 5.71L27.51 5.71Q27.22 5.47 27.05 5.39Q26.88 5.31 26.63 5.22Q26.38 5.14 26.24 5.21Q26.11 5.29 26.05 5.60L26.05 5.60Q25.84 6.79 25.61 8.28Q25.38 9.77 25.23 11.38ZM33.47 9.51L33.47 9.51Q33.50 9.31 33.52 9.03Q33.54 8.75 33.55 8.45Q33.56 8.15 33.55 7.84Q33.54 7.53 33.52 7.29L33.52 7.29Q33.46 6.85 33.33 6.49Q33.19 6.13 32.91 5.84L32.91 5.84Q32.62 5.52 32.18 5.30Q31.74 5.08 31.32 5.01L31.32 5.01Q31.02 4.96 30.66 5.01Q30.30 5.07 30.00 5.36L30.00 5.36Q29.53 5.82 29.13 6.50Q28.74 7.17 28.45 7.96Q28.15 8.75 27.96 9.60Q27.78 10.46 27.71 11.30Q27.64 12.14 27.70 12.90Q27.76 13.66 27.97 14.27L27.97 14.27Q28.08 14.66 28.31 14.99Q28.53 15.32 28.77 15.51L28.77 15.51Q29.41 15.96 30.16 16.10L30.16 16.10Q30.98 16.30 31.65 15.72L31.65 15.72Q32.16 15.26 32.58 14.42Q33.00 13.58 33.29 12.39L33.29 12.39Q33.36 12.04 33.35 11.82Q33.33 11.59 33.18 11.30L33.18 11.30Q33.10 11.14 33.00 10.96Q32.90 10.78 32.79 10.63L32.79 10.63Q32.63 10.39 32.45 10.32Q32.26 10.25 31.96 10.30L31.96 10.30Q31.71 10.36 31.36 10.42Q31.01 10.49 30.69 10.58L30.69 10.58Q30.35 10.65 30.14 10.74Q29.93 10.82 30.00 11.14L30.00 11.14Q30.16 11.86 30.45 12.17Q30.74 12.49 31.28 12.45L31.28 12.45Q31.14 12.88 30.97 13.27Q30.81 13.65 30.64 13.92Q30.46 14.18 30.29 14.31Q30.11 14.43 29.95 14.35L29.95 14.35Q29.75 14.25 29.65 13.85Q29.55 13.45 29.54 12.89Q29.53 12.32 29.60 11.66Q29.68 11.00 29.83 10.40L29.83 10.40Q30.00 9.67 30.23 9.02Q30.46 8.36 30.70 7.88Q30.94 7.39 31.17 7.13Q31.40 6.86 31.57 6.93L31.57 6.93Q31.65 6.96 31.69 7.11Q31.72 7.27 31.75 7.48L31.75 7.48Q31.77 7.59 31.77 7.71Q31.78 7.83 31.78 7.95L31.78 7.95Q31.78 8.08 31.79 8.19Q31.79 8.30 31.81 8.41L31.81 8.41Q31.86 9.02 32.15 9.39Q32.44 9.77 33.04 9.88L33.04 9.88Q33.26 9.91 33.34 9.83Q33.42 9.74 33.47 9.51ZM34.36 14.35L34.36 14.35Q34.50 14.74 34.69 15.01Q34.89 15.27 35.11 15.47L35.11 15.47Q35.64 15.92 36.48 16.00L36.48 16.00Q36.90 16.04 37.23 15.95Q37.56 15.86 37.88 15.62L37.88 15.62Q38.33 15.23 38.68 14.41Q39.02 13.58 39.29 12.41Q39.56 11.24 39.77 9.77Q39.98 8.30 40.18 6.59L40.18 6.59Q40.22 6.30 40.18 6.15Q40.14 5.99 39.90 5.80L39.90 5.80Q39.68 5.63 39.41 5.45Q39.14 5.28 38.91 5.19Q38.67 5.11 38.51 5.18Q38.35 5.25 38.33 5.56L38.33 5.56Q38.25 6.26 38.13 7.20Q38.01 8.15 37.86 9.14Q37.70 10.14 37.52 11.10Q37.34 12.05 37.14 12.78Q36.93 13.51 36.70 13.92Q36.47 14.34 36.22 14.24L36.22 14.24Q36.02 14.15 35.95 13.76Q35.88 13.36 35.91 12.76Q35.94 12.17 36.04 11.42Q36.13 10.68 36.27 9.92Q36.41 9.16 36.58 8.41Q36.74 7.67 36.88 7.07L36.88 7.07Q37.03 6.40 36.58 5.95L36.58 5.95Q36.37 5.75 36.15 5.60Q35.92 5.45 35.69 5.35L35.69 5.35Q35.43 5.24 35.30 5.30Q35.17 5.36 35.10 5.67L35.10 5.67Q34.85 6.75 34.60 7.97Q34.36 9.20 34.22 10.38Q34.08 11.56 34.08 12.61Q34.09 13.65 34.36 14.35ZM41.30 5.84L41.30 5.84L40.24 13.93Q40.21 14.29 40.29 14.56Q40.36 14.83 40.52 15.02L40.52 15.02Q40.70 15.27 40.84 15.44Q40.98 15.60 41.13 15.75L41.13 15.75Q41.27 15.89 41.46 15.97Q41.65 16.04 42.03 15.90L42.03 15.90Q42.59 15.75 43.20 15.57Q43.82 15.39 44.41 15.22L44.41 15.22Q44.65 15.15 44.70 15.04Q44.74 14.94 44.69 14.66L44.69 14.66Q44.62 14.41 44.55 14.17Q44.48 13.93 44.37 13.66L44.37 13.66Q44.27 13.43 44.12 13.34Q43.97 13.26 43.74 13.29L43.74 13.29Q43.29 13.33 42.90 13.39Q42.50 13.45 42.08 13.57L42.08 13.57Q42.15 13.20 42.22 12.82Q42.29 12.43 42.36 12.03L42.36 12.03Q42.88 11.87 43.44 11.74Q43.99 11.61 44.52 11.47L44.52 11.47Q44.76 11.40 44.81 11.30Q44.87 11.20 44.80 10.91L44.80 10.91Q44.74 10.65 44.68 10.42Q44.62 10.18 44.51 9.93L44.51 9.93Q44.41 9.69 44.27 9.61Q44.13 9.53 43.89 9.55L43.89 9.55Q43.61 9.56 43.35 9.58Q43.09 9.60 42.83 9.66L42.83 9.66Q42.97 9.03 43.08 8.46Q43.19 7.88 43.30 7.36L43.30 7.36Q43.89 7.25 44.43 7.17Q44.97 7.08 45.46 7.01L45.46 7.01Q45.70 6.97 45.76 6.87Q45.82 6.76 45.78 6.47L45.78 6.47Q45.72 6.22 45.68 6.01Q45.63 5.80 45.51 5.53L45.51 5.53Q45.37 5.03 44.91 5.05L44.91 5.05Q43.93 5.11 42.97 5.35Q42.01 5.59 41.30 5.84ZM47.80 12.59L47.80 12.59Q48.03 13.01 48.32 13.43Q48.61 13.86 48.90 14.25Q49.20 14.64 49.48 14.98Q49.76 15.32 49.97 15.54L49.97 15.54Q50.29 15.83 50.54 15.87Q50.79 15.90 50.99 15.82L50.99 15.82Q51.16 15.78 51.28 15.74Q51.39 15.71 51.55 15.51L51.55 15.51Q51.69 15.36 51.70 15.22Q51.72 15.08 51.52 14.84L51.52 14.84Q51.28 14.56 51.02 14.20Q50.75 13.83 50.48 13.45Q50.20 13.06 49.95 12.67Q49.70 12.28 49.49 11.94L49.49 11.94Q50.47 11.31 51.16 10.59Q51.84 9.87 52.11 9.03L52.11 9.03Q52.29 8.54 52.14 7.74L52.14 7.74Q51.98 7.03 51.72 6.54Q51.46 6.05 51.17 5.64L51.17 5.64Q50.81 5.18 50.32 5.08Q49.84 4.97 49.31 5.10Q48.78 5.22 48.22 5.51Q47.67 5.80 47.17 6.10L47.17 6.10Q47.01 6.20 46.87 6.77Q46.73 7.34 46.59 8.16Q46.45 8.99 46.33 9.96Q46.21 10.93 46.12 11.85Q46.02 12.77 45.94 13.52Q45.86 14.28 45.82 14.67L45.82 14.67Q45.79 15.04 45.85 15.25Q45.91 15.47 46.07 15.62L46.07 15.62Q46.24 15.76 46.44 15.82Q46.63 15.88 46.87 15.97L46.87 15.97Q47.10 16.04 47.18 15.97Q47.26 15.90 47.31 15.68L47.31 15.68Q47.42 14.92 47.54 14.16Q47.66 13.40 47.80 12.59ZM48.78 7.60L48.78 7.60Q49.10 7.39 49.39 7.31Q49.69 7.22 49.92 7.22L49.92 7.22Q50.41 7.22 50.53 7.55L50.53 7.55Q50.58 7.74 50.45 8.11Q50.32 8.47 50.02 8.88Q49.71 9.28 49.25 9.69Q48.79 10.09 48.20 10.37L48.20 10.37Q48.37 9.58 48.50 8.88Q48.64 8.19 48.78 7.60ZM55.09 5.88L55.09 5.88Q54.87 5.68 54.57 5.51Q54.28 5.33 54.03 5.25L54.03 5.25Q53.77 5.15 53.65 5.22Q53.52 5.29 53.45 5.60L53.45 5.60Q53.35 6.12 53.23 6.86Q53.12 7.60 53.00 8.44Q52.88 9.28 52.77 10.18Q52.65 11.07 52.56 11.90Q52.46 12.73 52.39 13.43Q52.32 14.14 52.29 14.62L52.29 14.62Q52.26 14.98 52.33 15.18Q52.39 15.39 52.60 15.54L52.60 15.54Q52.79 15.69 53.02 15.79Q53.24 15.89 53.48 15.99L53.48 15.99Q53.72 16.07 53.80 16.00Q53.89 15.93 53.93 15.69L53.93 15.69Q54.01 15.08 54.12 14.32Q54.22 13.55 54.35 12.73Q54.47 11.90 54.61 11.05Q54.74 10.19 54.87 9.40Q55.01 8.61 55.13 7.91Q55.26 7.21 55.37 6.69L55.37 6.69Q55.43 6.40 55.38 6.24Q55.33 6.08 55.09 5.88ZM60.12 12.89L60.12 12.89Q59.26 12.54 58.73 13.34L58.73 13.34Q58.00 14.49 57.62 14.29L57.62 14.29Q57.43 14.21 57.34 13.85Q57.25 13.48 57.23 12.94Q57.22 12.40 57.28 11.76Q57.34 11.12 57.47 10.49L57.47 10.49Q57.60 9.90 57.81 9.24Q58.02 8.58 58.25 8.04Q58.49 7.49 58.72 7.15Q58.94 6.82 59.11 6.89L59.11 6.89Q59.28 6.97 59.31 7.27Q59.35 7.57 59.35 7.94L59.35 7.94Q59.35 8.05 59.35 8.16Q59.36 8.27 59.37 8.39L59.37 8.39Q59.46 8.97 59.71 9.32Q59.96 9.66 60.52 9.81L60.52 9.81Q60.82 9.90 60.89 9.78Q60.96 9.66 61.01 9.46L61.01 9.46Q61.10 9.04 61.12 8.43Q61.15 7.81 61.12 7.29L61.12 7.29Q61.10 6.85 60.98 6.50Q60.86 6.15 60.52 5.80L60.52 5.80Q60.20 5.52 59.72 5.27Q59.23 5.03 58.77 4.97L58.77 4.97Q58.46 4.94 58.11 5.05Q57.76 5.17 57.41 5.56L57.41 5.56Q56.98 6.06 56.62 6.76Q56.25 7.45 55.99 8.25Q55.72 9.06 55.55 9.92Q55.38 10.78 55.34 11.61Q55.29 12.45 55.36 13.19Q55.43 13.93 55.64 14.50L55.64 14.50Q55.76 14.90 56.01 15.19Q56.25 15.48 56.49 15.64L56.49 15.64Q56.77 15.78 57.13 15.94Q57.48 16.10 57.92 16.16L57.92 16.16Q58.34 16.21 58.77 16.05Q59.19 15.89 59.46 15.62L59.46 15.62Q59.71 15.34 59.96 14.92Q60.21 14.50 60.37 14.01L60.37 14.01Q60.51 13.59 60.49 13.31Q60.47 13.03 60.12 12.89Z"></path></g><!----><!----></svg>